HIERARCHY
ROOT Hips
{
  OFFSET 0 0 0
  CHANNELS 6 Xposition Yposition Zposition Zrotation Xrotation Yrotation
  JOINT Spine
  {
    OFFSET 0 10.1816 0.131521
    CHANNELS 3 Zrotation Xrotation Yrotation
    JOINT Spine1
    {
      OFFSET 0 10.0835 -1.0008
      CHANNELS 3 Zrotation Xrotation Yrotation
      JOINT Spine2
      {
        OFFSET 0 9.10001 -1.37342
        CHANNELS 3 Zrotation Xrotation Yrotation
        JOINT Neck
        {
          OFFSET 0 16.6717 -2.51617
          CHANNELS 3 Zrotation Xrotation Yrotation
          JOINT Head
          {
            OFFSET 0 9.61788 1.68501
            CHANNELS 3 Zrotation Xrotation Yrotation
            End Site
            {
              OFFSET 0 0 0
            }
          }
        }
        JOINT LeftShoulder
        {
          OFFSET 4.57045 10.946 -2.62799
          CHANNELS 3 Zrotation Xrotation Yrotation
          JOINT LeftArm
          {
            OFFSET 10.5924 -0.524583 -2.23212
            CHANNELS 3 Zrotation Xrotation Yrotation
            JOINT LeftForeArm
            {
              OFFSET 27.8415 -8.94286e-05 3.74589e-05
              CHANNELS 3 Zrotation Xrotation Yrotation
              JOINT LeftHand
              {
                OFFSET 28.3288 -1.74407e-05 3.78045e-05
                CHANNELS 3 Zrotation Xrotation Yrotation
                End Site
                {
                  OFFSET 0 0 0
                }
              }
            }
          }
        }
        JOINT RightShoulder
        {
          OFFSET -4.56997 10.9462 -2.62802
          CHANNELS 3 Zrotation Xrotation Yrotation
          JOINT RightArm
          {
            OFFSET -10.5928 -0.524798 -2.2321
            CHANNELS 3 Zrotation Xrotation Yrotation
            JOINT RightForeArm
            {
              OFFSET -27.8415 -3.30792e-05 1.16763e-05
              CHANNELS 3 Zrotation Xrotation Yrotation
              JOINT RightHand
              {
                OFFSET -28.3288 0 5.5816e-05
                CHANNELS 3 Zrotation Xrotation Yrotation
                End Site
                {
                  OFFSET 0 0 0
                }
              }
            }
          }
        }
      }
    }
  }
  JOINT LeftUpLeg
  {
    OFFSET 8.20778 -6.75171 -1.59956
    CHANNELS 3 Zrotation Xrotation Yrotation
    JOINT LeftLeg
    {
      OFFSET 0 -44.3705 0.284643
      CHANNELS 3 Zrotation Xrotation Yrotation
      JOINT LeftFoot
      {
        OFFSET 0 -44.4279 -2.98219
        CHANNELS 3 Zrotation Xrotation Yrotation
        JOINT LeftToeBase
        {
          OFFSET 0 -8.72867 10.7106
          CHANNELS 3 Zrotation Xrotation Yrotation
          End Site
          {
            OFFSET 0 0 0
          }
        }
      }
    }
  }
  JOINT RightUpLeg
  {
    OFFSET -8.2078 -6.75166 -1.59956
    CHANNELS 3 Zrotation Xrotation Yrotation
    JOINT RightLeg
    {
      OFFSET 0 -44.3705 0.286156
      CHANNELS 3 Zrotation Xrotation Yrotation
      JOINT RightFoot
      {
        OFFSET 0 -44.4277 -2.98379
        CHANNELS 3 Zrotation Xrotation Yrotation
        JOINT RightToeBase
        {
          OFFSET 0 -8.72867 10.7106
          CHANNELS 3 Zrotation Xrotation Yrotation
          End Site
          {
            OFFSET 0 0 0
          }
        }
      }
    }
  }
}
MOTION
Frames:	6
Frame Time:	0.0333333
220.702 95.6373 -295.991 6.63885 -8.72755 75.8843 1.62525 4.80333 0.75689 3.20348 9.62585 1.38361 3.20348 9.62585 1.3836 1.49264 31.557 14.3614 -15.3888 -2.91875 19.1407 -10.1328 -0.106042 3.61579 -35.8563 31.9531 -34.2863 7.47462 -13.8594 -60.2437 8.74141 43.4207 -2.2919 15.76 -0.647575 -6.12344 58.2623 42.8918 -5.67846 -13.574 -6.12941 20.9006 5.54282 11.1885 -6.34705 -2.86821 -28.6768 -11.4174 -6.22672 59.7702 -10.7618 -7.93673 5.75064 -10.3671 -8.00747e-07 -4.64885e-06 1.17336e-05 -6.40253 -10.3163 4.62642 5.79297 39.2035 0.204034 9.40705 -17.5607 3.73508 -8.19291e-07 1.36546e-06 1.00857e-05 
220.039 95.9268 -295.882 6.18169 -7.95983 80.1975 1.75114 4.75863 0.589097 3.471 9.53292 1.03681 3.47101 9.53291 1.03683 2.53207 31.5603 13.5145 -15.024 -2.35413 18.759 -10.0604 -0.0471706 3.26682 -40.8218 29.9242 -29.6716 7.29782 -13.8407 -60.8546 9.88124 42.2315 -2.36989 15.8117 -0.568168 -5.75504 54.8271 40.2113 -2.70794 -13.7634 -5.84752 19.6832 3.89207 15.9151 -9.42965 -0.241862 -30.235 -5.997 -7.51095 58.9796 -7.51589 -15.3164 3.77099 -8.55485 -8.00747e-07 -4.64885e-06 1.17336e-05 -6.87916 -9.96062 2.85256 6.1599 38.1283 -1.50584 9.60531 -17.5343 2.6403 -8.19291e-07 1.36546e-06 1.00857e-05 
219.558 96.3314 -296.05 5.4992 -7.62353 83.899 1.9524 4.58121 0.489926 3.88403 9.17634 0.826395 3.88404 9.17632 0.8264 2.9857 31.8987 12.4245 -14.8526 -2.28706 17.8302 -10.8252 0.0043256 2.96078 -44.3805 28.9303 -25.3585 7.77534 -13.9784 -59.3991 11.9173 39.2035 -2.96863 15.2641 -0.567451 -5.81687 51.7824 39.0878 -0.0457757 -14.0899 -5.88123 19.3388 2.45504 18.8247 -12.6508 3.29469 -31.0335 1.4163 -7.94851 57.8418 -5.4898 -18.2491 -1.02534 -7.95107 -8.00747e-07 -4.64885e-06 1.17336e-05 -6.85616 -9.39132 1.41329 5.84692 36.2745 -2.68809 10.1474 -17.0434 1.56705 -8.19291e-07 1.36546e-06 1.00857e-05 
219.283 97.0002 -296.383 4.54044 -6.77869 86.9997 1.94774 4.23802 0.537729 3.87138 8.49173 0.934103 3.87139 8.49172 0.934084 4.0267 32.1226 11.0816 -14.4959 -2.6912 16.8421 -11.3036 0.0563827 2.67059 -47.2627 29.7711 -21.715 9.20689 -14.3828 -55.4094 13.7553 35.7444 -1.96483 14.7196 -0.590816 -5.99588 49.2962 39.6337 1.69725 -14.4243 -6.12104 19.6575 -1.16694 18.6941 -13.2736 7.17874 -31.1823 10.0016 -9.34007 56.3399 -1.32288 -16.6039 -4.49047 -6.30487 -8.00747e-07 -4.64885e-06 1.17336e-05 -7.45156 -8.73462 -0.24111 5.01886 33.6428 -3.16976 10.7626 -15.9262 0.701494 -8.19291e-07 1.36546e-06 1.00857e-05 
219.216 97.5204 -296.868 3.96939 -6.29044 90.7136 1.91338 3.90952 0.486579 3.80673 7.83304 0.844586 3.80674 7.83302 0.844585 5.47014 31.5317 9.91169 -13.9743 -2.66577 16.1968 -11.2871 0.024361 2.84918 -50.0021 31.4274 -18.6841 11.1569 -14.5201 -49.9825 14.1017 30.826 -0.470113 14.4985 -0.572067 -5.93482 47.595 40.6194 2.61794 -14.4325 -6.52007 20.9069 -6.52555 16.932 -13.3749 10.8411 -30.3413 18.4696 -8.8119 55.7627 2.86492 -15.0223 -7.32497 -3.37039 -8.00747e-07 -4.64885e-06 1.17336e-05 -7.81526 -7.33188 -2.10125 4.30438 30.988 -3.88795 11.44 -14.9495 -0.239154 -8.19291e-07 1.36546e-06 1.00857e-05 
219.273 97.8375 -297.456 3.62598 -5.94672 94.9769 1.88055 3.59016 0.387467 3.74776 7.19103 0.658388 3.74776 7.19102 0.658373 6.64179 30.0619 8.87337 -13.811 -2.72309 15.5294 -11.7455 0.00287438 2.97012 -51.2933 33.464 -16.4642 12.9912 -13.7201 -43.6515 12.9616 23.3772 2.8691 14.1216 -0.573922 -5.99355 47.5655 41.0941 3.18605 -14.71 -6.9689 21.8892 -14.1951 14.4873 -12.8309 14.3099 -29.6204 26.0662 -6.99138 56.6712 5.89511 -12.4668 -9.24743 -0.370414 -8.00747e-07 -4.64885e-06 1.17336e-05 -8.05674 -5.63594 -4.43579 3.5589 28.7438 -4.64808 12.2347 -14.2918 -1.13418 -8.19291e-07 1.36546e-06 1.00857e-05 
